<svg width="120" height="120" viewBox="0 0 120 120" fill="none" xmlns="http://www.w3.org/2000/svg">
  <rect width="120" height="120" rx="12" fill="#ffffff"/>
  <rect width="120" height="120" rx="12" stroke="#e3f2fd" stroke-width="2"/>
  
  <!-- Medical research center theme -->
  <rect x="20" y="30" width="80" height="50" rx="8" fill="#2196f3" stroke="#1976d2" stroke-width="2"/>
  
  <!-- Research/lab equipment -->
  <circle cx="40" cy="45" r="8" fill="#ffffff" stroke="#1976d2" stroke-width="2"/>
  <circle cx="80" cy="45" r="8" fill="#ffffff" stroke="#1976d2" stroke-width="2"/>
  
  <!-- DNA helix inspired -->
  <path d="M50 35 Q55 40 50 45 Q45 50 50 55 Q55 60 50 65" stroke="#4caf50" stroke-width="3" fill="none"/>
  <path d="M70 35 Q65 40 70 45 Q75 50 70 55 Q65 60 70 65" stroke="#4caf50" stroke-width="3" fill="none"/>
  
  <!-- Cross -->
  <rect x="57" y="40" width="6" height="20" rx="1" fill="#f44336"/>
  <rect x="52" y="47" width="16" height="6" rx="1" fill="#f44336"/>
  
  <!-- Research dots -->
  <circle cx="35" cy="60" r="2" fill="#ffeb3b"/>
  <circle cx="60" cy="35" r="2" fill="#ffeb3b"/>
  <circle cx="85" cy="60" r="2" fill="#ffeb3b"/>
  
  <!-- Text -->
  <text x="60" y="100" text-anchor="middle" font-family="Arial, sans-serif" font-size="14" font-weight="bold" fill="#2196f3">CTR</text>
  <text x="60" y="112" text-anchor="middle" font-family="Arial, sans-serif" font-size="7" fill="#666">Centro de Pesquisa</text>
</svg>